<svg xmlns="http://www.w3.org/2000/svg" viewBox="0 0 24 30" x="0px" y="0px"><title>dustbin</title><path d="M17,6V3a1,1,0,0,0-1-1H8A1,1,0,0,0,7,3V6H2V8H4V19a3,3,0,0,0,3,3H17a3,3,0,0,0,3-3V8h2V6ZM9,4h6V6H9Zm9,15a1,1,0,0,1-1,1H7a1,1,0,0,1-1-1V8H18ZM9,17V11a1,1,0,0,1,2,0v6a1,1,0,0,1-2,0Zm4,0V11a1,1,0,0,1,2,0v6a1,1,0,0,1-2,0Z"/><text x="0" y="39" fill="#000000" font-size="5px" font-weight="bold" font-family="'Helvetica Neue', Helvetica, Arial-Unicode, Arial, Sans-serif">Created by Jonathan Bellamy</text><text x="0" y="44" fill="#000000" font-size="5px" font-weight="bold" font-family="'Helvetica Neue', Helvetica, Arial-Unicode, Arial, Sans-serif">from the Noun Project</text></svg>