<svg xmlns:dc="http://purl.org/dc/elements/1.1/" xmlns:cc="http://creativecommons.org/ns#" xmlns:rdf="http://www.w3.org/1999/02/22-rdf-syntax-ns#" xmlns:svg="http://www.w3.org/2000/svg" xmlns="http://www.w3.org/2000/svg" xmlns:sodipodi="http://sodipodi.sourceforge.net/DTD/sodipodi-0.dtd" xmlns:inkscape="http://www.inkscape.org/namespaces/inkscape" version="1.1" x="0px" y="0px" viewBox="0 0 100 125"><g transform="translate(0,-952.36218)"><path style="text-indent:0;text-transform:none;direction:ltr;block-progression:tb;baseline-shift:baseline;color:#000000;enable-background:accumulate;" d="m 41.625,963.45588 c -1.77,0 -3.375,1.7938 -3.375,4.3126 l 0,1.7812 23.469,0 0,-1.7812 c 0,-2.5192 -1.604,-4.3126 -3.375,-4.3126 l -16.719,0 z m -15.562,8.3126 c -1.77,0 -3.774,1.9203 -4.094,4.4062 l -0.469,3.75 12.219,0 8.594,0 23.937,0 11.469,0 0.781,0 -0.5,-3.75 c -0.319,-2.4857 -2.292,-4.4062 -4.062,-4.4062 l -7.688,0 -32.531,0 -7.656,0 z m -2.531,10.375 7.031,54.68742 c 0.32,2.4859 2.323,4.4376 4.093,4.4376 l 7.657,0 15.375,0 7.656,0 c 1.77,0 3.775,-1.9521 4.094,-4.4376 l 7.031,-54.68742 -10.219,0 -23.937,0 -8.594,0 -10.187,0 z m 41.25,6.9687 a 1.10011,1.10011 0 0 1 0.124,0 1.10011,1.10011 0 0 1 1.094,1.25 l -4.406,42.21872 a 1.10011,1.10011 0 1 1 -2.188,-0.2187 l 4.407,-42.21872 a 1.10011,1.10011 0 0 1 0.843,-1 1.10011,1.10011 0 0 1 0.126,-0.031 z m -29.844,0.031 a 1.10011,1.10011 0 0 1 1.25,1 l 4.375,42.21872 a 1.10011,1.10011 0 1 1 -2.188,0.2187 L 34,990.36188 a 1.10011,1.10011 0 0 1 0.938,-1.2187 z m 14.937,0.1562 a 1.10011,1.10011 0 0 1 1.219,1.125 l 0,42.56252 a 1.10011,1.10011 0 1 1 -2.188,0 l 0,-42.56252 a 1.10011,1.10011 0 0 1 0.969,-1.125 z" fill="#000000" fill-opacity="1" stroke="none" marker="none" visibility="visible" display="inline" overflow="visible"/></g><text x="0" y="115" fill="#000000" font-size="5px" font-weight="bold" font-family="'Helvetica Neue', Helvetica, Arial-Unicode, Arial, Sans-serif">Created by Artdabana@Design</text><text x="0" y="120" fill="#000000" font-size="5px" font-weight="bold" font-family="'Helvetica Neue', Helvetica, Arial-Unicode, Arial, Sans-serif">from the Noun Project</text></svg>