<svg width="269" height="311" viewBox="0 0 269 311" fill="none" xmlns="http://www.w3.org/2000/svg">
<path d="M263.47 55.98C266.23 55.98 268.47 58.22 268.47 60.98C268.47 63.74 266.23 65.98 263.47 65.98H240.69L216.73 276.81C215.62 286.56 210.98 295.08 204.16 301.17C197.35 307.27 188.35 310.92 178.55 310.92H90.8C81.01 310.92 72.02 307.27 65.19 301.17C58.37 295.1 53.72 286.56 52.62 276.8L28.64 65.97H5.88C3.12 65.97 0.880005 63.73 0.880005 60.97C0.880005 58.21 3.12 55.97 5.88 55.97H263.49L263.47 55.98ZM139.66 248.55C139.66 251.31 137.42 253.55 134.66 253.55C131.9 253.55 129.66 251.31 129.66 248.55V118.36C129.66 115.6 131.9 113.36 134.66 113.36C137.42 113.36 139.66 115.6 139.66 118.36V248.55ZM189.01 248.55C189.01 251.31 186.77 253.55 184.01 253.55C181.25 253.55 179.01 251.31 179.01 248.55V118.36C179.01 115.6 181.25 113.36 184.01 113.36C186.77 113.36 189.01 115.6 189.01 118.36V248.55ZM90.32 248.55C90.32 251.31 88.08 253.55 85.32 253.55C82.56 253.55 80.32 251.31 80.32 248.55V118.36C80.32 115.6 82.56 113.36 85.32 113.36C88.08 113.36 90.32 115.6 90.32 118.36V248.55ZM90.32 39.3C90.32 42.06 88.08 44.3 85.32 44.3C82.56 44.3 80.32 42.06 80.32 39.3V22C80.32 16.06 82.77 10.66 86.71 6.73999C90.65 2.82999 96.08 0.399994 102.03 0.399994H167.29C173.25 0.399994 178.68 2.82999 182.61 6.73999C186.55 10.66 189 16.06 189 22V39.3C189 42.06 186.76 44.3 184 44.3C181.24 44.3 179 42.06 179 39.3V22C179 18.81 177.69 15.91 175.58 13.81C173.46 11.71 170.52 10.4 167.29 10.4H102.03C98.79 10.4 95.86 11.71 93.74 13.81C91.63 15.9 90.32 18.81 90.32 22V39.3ZM230.66 65.98H38.66L62.52 275.71C63.34 282.92 66.77 289.23 71.8 293.73C76.82 298.23 83.49 300.92 90.78 300.92H178.53C185.81 300.92 192.47 298.22 197.51 293.73C202.55 289.25 205.97 282.93 206.8 275.69L230.66 65.98Z" fill="black"/>
</svg>
