<svg width="94" height="94" viewBox="0 0 94 94" fill="none" xmlns="http://www.w3.org/2000/svg">
<path d="M70.5 18.8V4.7C70.5 3.45348 70.0048 2.25802 69.1234 1.3766C68.242 0.495177 67.0465 0 65.8 0H28.2C26.9535 0 25.758 0.495177 24.8766 1.3766C23.9952 2.25802 23.5 3.45348 23.5 4.7V18.8H0V28.2H9.4V79.9C9.4 83.6395 10.8855 87.2259 13.5298 89.8702C16.1741 92.5145 19.7604 94 23.5 94H70.5C74.2396 94 77.8259 92.5145 80.4702 89.8702C83.1145 87.2259 84.6 83.6395 84.6 79.9V28.2H94V18.8H70.5ZM32.9 9.4H61.1V18.8H32.9V9.4ZM75.2 79.9C75.2 81.1465 74.7048 82.342 73.8234 83.2234C72.942 84.1048 71.7465 84.6 70.5 84.6H23.5C22.2535 84.6 21.058 84.1048 20.1766 83.2234C19.2952 82.342 18.8 81.1465 18.8 79.9V28.2H75.2V79.9ZM32.9 70.5V42.3C32.9 41.0535 33.3952 39.858 34.2766 38.9766C35.158 38.0952 36.3535 37.6 37.6 37.6C38.8465 37.6 40.042 38.0952 40.9234 38.9766C41.8048 39.858 42.3 41.0535 42.3 42.3V70.5C42.3 71.7465 41.8048 72.942 40.9234 73.8234C40.042 74.7048 38.8465 75.2 37.6 75.2C36.3535 75.2 35.158 74.7048 34.2766 73.8234C33.3952 72.942 32.9 71.7465 32.9 70.5ZM51.7 70.5V42.3C51.7 41.0535 52.1952 39.858 53.0766 38.9766C53.958 38.0952 55.1535 37.6 56.4 37.6C57.6465 37.6 58.842 38.0952 59.7234 38.9766C60.6048 39.858 61.1 41.0535 61.1 42.3V70.5C61.1 71.7465 60.6048 72.942 59.7234 73.8234C58.842 74.7048 57.6465 75.2 56.4 75.2C55.1535 75.2 53.958 74.7048 53.0766 73.8234C52.1952 72.942 51.7 71.7465 51.7 70.5Z" fill="black"/>
</svg>
